<svg width="18" height="10" viewBox="0 0 18 10" fill="none" xmlns="http://www.w3.org/2000/svg">
<path d="M0.00375617 4.82027C0.164719 4.33738 0.50757 4.17158 1.00548 4.17212C6.514 4.18071 9.45109 4.18249 14.9596 4.17749H15.2365C15.149 4.08627 15.0927 4.02457 15.0336 3.96287C14.1709 3.1044 13.3076 2.24593 12.4438 1.38746C12.3346 1.28671 12.2564 1.15693 12.2184 1.01334C12.1804 0.869749 12.1841 0.718296 12.2291 0.57674C12.2656 0.436014 12.3418 0.308723 12.4485 0.209996C12.5552 0.111269 12.688 0.045258 12.8311 0.0198082C13.1305 -0.0456502 13.3822 0.054683 13.5968 0.268227C14.3791 1.04765 15.1621 1.82635 15.9458 2.60434C16.5295 3.18488 17.1129 3.76578 17.696 4.34703C18.1005 4.75105 18.1021 5.2098 17.696 5.61382C16.3367 6.96948 14.9748 8.32408 13.6102 9.6776C13.247 10.0387 12.7619 10.0532 12.4298 9.72589C12.0977 9.3986 12.1165 8.90176 12.4835 8.53261C13.3362 7.68165 14.19 6.83177 15.0449 5.98296C15.0986 5.9293 15.1571 5.88745 15.2134 5.84024L15.1968 5.78658H14.9768C9.46182 5.78658 6.51793 5.78819 1.00226 5.79141C0.504351 5.79141 0.162573 5.62562 0 5.1438L0.00375617 4.82027Z" fill="black"/>
</svg>
