<svg width="275" height="75" viewBox="0 0 275 75" fill="none" xmlns="http://www.w3.org/2000/svg">
<g clip-path="url(#clip0_8630_7984)">
<path d="M102.108 31.0145H100.154C97.7735 31.0145 96.2813 30.3394 95.6418 28.9183C94.9312 30.3394 93.4746 31.0145 91.2008 31.0145C87.3637 31.0145 85.4097 28.7407 85.4097 24.122C85.4097 19.5033 87.3637 17.4427 91.2008 17.4427H97.3471V25.4721C97.3471 27.5327 98.3419 28.5275 100.332 28.5275H102.143V30.9789L102.108 31.0145ZM94.4338 19.7876H91.3429C90.1704 19.7876 89.3178 20.1784 88.8559 20.96C88.4651 21.5995 88.2519 22.6653 88.2519 24.1575C88.2519 25.6497 88.4651 26.7155 88.8559 27.3551C89.3178 28.1722 90.1704 28.563 91.3429 28.563C92.5153 28.563 93.368 28.1722 93.8298 27.3551C94.2207 26.68 94.4338 25.6142 94.4338 24.1575V19.7876ZM91.8047 13.2504C91.8047 14.103 91.0586 14.8136 90.206 14.8136C89.3533 14.8136 88.6427 14.103 88.6427 13.2504C88.6427 12.3977 89.3533 11.7227 90.206 11.7227C91.0586 11.7227 91.8047 12.3977 91.8047 13.2504ZM95.8549 13.2504C95.8549 14.103 95.1089 14.8136 94.2917 14.8136C93.4746 14.8136 92.7285 14.103 92.7285 13.2504C92.7285 12.3977 93.439 11.7227 94.2917 11.7227C95.1444 11.7227 95.8549 12.3977 95.8549 13.2504Z" fill="white"/>
<path d="M128.328 31.0152H101.433V28.4927H105.021V20.8897L107.899 20.0725V26.2544C108.29 24.7622 108.965 23.3411 109.853 22.0621C111.772 19.1843 114.401 17.6921 117.776 17.6211C120.725 17.5145 122.963 18.6869 124.455 21.0673C125.486 22.7727 125.948 25.2241 125.805 28.4927H128.399V31.0152H128.328ZM122.857 28.4927C122.928 27.9953 122.963 27.5334 122.963 27.036C122.963 25.1886 122.608 23.6253 121.826 22.4174C120.903 20.9607 119.552 20.2502 117.812 20.2502C115.644 20.2502 113.726 21.2805 111.949 23.3056C110.351 25.082 109.498 26.7874 109.356 28.4927H122.857ZM119.624 13.2156C119.624 14.1038 118.877 14.7788 117.989 14.7788C117.066 14.7788 116.319 14.1038 116.319 13.2156C116.319 12.3274 117.066 11.6523 117.989 11.6523C118.877 11.6523 119.624 12.3629 119.624 13.2156Z" fill="white"/>
<path d="M135.718 25.6879C135.718 27.2156 135.185 28.4946 134.154 29.4894C133.124 30.4842 131.739 30.9816 129.998 30.9816H127.653V28.5301H129.82C131.81 28.5301 132.804 27.4998 132.804 25.4747V18.298L135.647 17.4453V25.6879H135.718ZM133.906 35.2094C133.906 36.0621 133.16 36.7726 132.343 36.7726C131.525 36.7726 130.779 36.0621 130.779 35.2094C130.779 34.3567 131.525 33.6817 132.343 33.6817C133.16 33.6817 133.906 34.3567 133.906 35.2094Z" fill="white"/>
<path d="M145.523 31.0152H142.326C139.732 31.0152 138.311 29.452 138.311 27.1426V12.5405L141.189 11.6523V27.036C141.189 27.9953 141.686 28.4927 142.681 28.4927H145.523V31.0152Z" fill="white"/>
<path d="M161.618 31.0145H155.045C154.477 31.0145 153.873 30.9434 153.269 30.8368C152.7 30.9434 152.132 31.0145 151.492 31.0145H144.813V28.563H149.254C148.011 27.2129 147.407 25.7563 147.371 24.2996C147.3 22.4166 147.691 20.8534 148.543 19.6454C149.609 18.1888 151.173 17.4782 153.269 17.4782C155.365 17.4782 156.964 18.1888 157.994 19.6454C158.847 20.8534 159.273 22.4166 159.237 24.2996C159.166 25.7563 158.527 27.2129 157.283 28.563H161.618V31.0145ZM152.7 13.2504C152.7 14.103 151.954 14.8136 151.101 14.8136C150.249 14.8136 149.538 14.103 149.538 13.2504C149.538 12.3977 150.284 11.7227 151.101 11.7227C151.919 11.7227 152.7 12.3977 152.7 13.2504ZM153.233 20.0007C151.279 20.0007 150.071 21.635 150.071 23.6957C150.071 24.7615 150.32 25.7208 150.817 26.5734C151.421 27.5682 152.203 28.2433 153.198 28.5985C154.228 28.2788 155.01 27.5682 155.578 26.5734C156.075 25.6852 156.36 24.726 156.36 23.6957C156.36 21.635 155.223 20.0007 153.162 20.0007H153.233ZM156.75 13.2504C156.75 14.103 156.004 14.8136 155.187 14.8136C154.37 14.8136 153.624 14.103 153.624 13.2504C153.624 12.3977 154.335 11.7227 155.187 11.7227C156.04 11.7227 156.75 12.3977 156.75 13.2504Z" fill="white"/>
<path d="M168.474 25.6856C168.474 27.2133 167.977 28.4923 166.947 29.4871C165.916 30.4819 164.531 30.9793 162.79 30.9793H160.836V28.4568H162.612C164.566 28.4568 165.561 27.4265 165.561 25.4014V12.5402L168.439 11.6875V25.6856H168.474Z" fill="white"/>
<path d="M173.946 31.0152H171.068V12.5405L173.946 11.6523V31.0152Z" fill="white"/>
<path d="M198.425 19.6129L197.501 22.3841C196.435 20.7498 195.192 19.9682 193.806 19.9682C191.816 19.9682 190.822 20.9985 190.822 23.0236V24.4803H198.318V30.5201C198.318 32.7228 197.465 34.3571 195.76 35.4585C194.374 36.3467 192.562 36.773 190.289 36.773C187.162 36.773 184.924 35.8848 183.609 34.1795C182.472 32.8294 181.797 30.5911 181.513 27.5002L184.426 26.612C184.426 29.4187 184.888 31.3372 185.777 32.4386C186.665 33.54 188.192 34.1084 190.289 34.1084C191.71 34.1084 192.882 33.8242 193.77 33.3268C194.907 32.6873 195.476 31.728 195.476 30.449V26.8962H187.944V22.7394C187.944 19.5063 190.147 17.4102 193.664 17.4102C195.547 17.4102 197.146 18.1207 198.46 19.5418L198.425 19.6129ZM189.969 40.7166C189.969 41.5693 189.258 42.2799 188.406 42.2799C187.553 42.2799 186.842 41.5693 186.842 40.7166C186.842 39.864 187.553 39.1889 188.406 39.1889C189.258 39.1889 189.969 39.8995 189.969 40.7166ZM194.019 40.7166C194.019 41.5693 193.273 42.2799 192.456 42.2799C191.639 42.2799 190.893 41.5693 190.893 40.7166C190.893 39.864 191.639 39.1889 192.456 39.1889C193.273 39.1889 194.019 39.8995 194.019 40.7166Z" fill="white"/>
<path d="M214.483 31.0171H210.184C209.794 34.4988 207.307 36.7726 203.399 36.7726C202.084 36.7726 201.018 36.4884 200.166 35.9555L198.815 33.1488C200.166 33.8949 201.693 34.2857 203.434 34.2857C205.886 34.2857 207.378 32.7224 207.378 30.1999V18.298L210.256 17.4453V28.4591H214.519V30.9816L214.483 31.0171Z" fill="white"/>
<path d="M226.243 31.0167H224.431C222.655 31.0167 221.234 30.4838 220.203 29.4179C219.173 30.4838 217.752 31.0167 215.905 31.0167H213.737V28.5653H215.727C217.752 28.5653 218.747 27.5349 218.747 25.5098V18.3331L221.589 17.4805V25.5809C221.589 27.5705 222.584 28.5653 224.573 28.5653H226.208V31.0167H226.243ZM219.742 35.209C219.742 36.0617 219.031 36.7723 218.178 36.7723C217.326 36.7723 216.651 36.0617 216.651 35.209C216.651 34.3564 217.326 33.6813 218.178 33.6813C219.031 33.6813 219.742 34.3564 219.742 35.209ZM223.792 35.209C223.792 36.0617 223.046 36.7723 222.229 36.7723C221.411 36.7723 220.665 36.0617 220.665 35.209C220.665 34.3564 221.376 33.6813 222.229 33.6813C223.081 33.6813 223.792 34.3564 223.792 35.209Z" fill="white"/>
<path d="M238.039 31.0161H236.227C234.45 31.0161 233.029 30.4832 231.999 29.4174C230.969 30.4832 229.547 31.0161 227.7 31.0161H225.533V28.5647H227.522C229.547 28.5647 230.542 27.5344 230.542 25.5093V18.3326L233.384 17.4799V25.5803C233.384 27.5699 234.379 28.5647 236.369 28.5647H238.003V31.0161H238.039ZM231.466 13.252C231.466 14.1047 230.755 14.8153 229.938 14.8153C229.121 14.8153 228.375 14.1047 228.375 13.252C228.375 12.3994 229.086 11.7243 229.938 11.7243C230.791 11.7243 231.466 12.3994 231.466 13.252ZM233.527 9.77027C233.527 10.6585 232.78 11.298 231.963 11.298C231.146 11.298 230.4 10.6229 230.4 9.77027C230.4 8.9176 231.146 8.20703 231.963 8.20703C232.78 8.20703 233.527 8.9176 233.527 9.77027ZM235.552 13.252C235.552 14.1047 234.841 14.8153 233.988 14.8153C233.136 14.8153 232.425 14.1047 232.425 13.252C232.425 12.3994 233.171 11.7243 233.988 11.7243C234.806 11.7243 235.552 12.3994 235.552 13.252Z" fill="white"/>
<path d="M258.219 31.0148H237.292V28.5634H251.539C251.539 27.0357 251.539 25.9343 251.433 25.2948C251.22 24.0513 250.722 23.0565 249.976 22.3815C248.946 21.4222 247.596 20.9248 245.926 20.9248C243.759 20.9248 241.982 21.7064 240.632 23.2697L238.678 21.4222L248.093 11.6875H251.859L245.322 18.5089C245.784 18.4379 246.21 18.4023 246.672 18.4023C248.946 18.4023 250.793 19.0774 252.214 20.4985C253.564 21.8841 254.382 23.696 254.559 25.8988C254.559 26.5383 254.63 27.3554 254.559 28.4568H258.254V30.9793L258.219 31.0148Z" fill="white"/>
<path d="M265.076 25.6856C265.076 27.2133 264.578 28.4923 263.548 29.4871C262.518 30.4819 261.132 30.9793 259.391 30.9793H257.437V28.4568H259.213C261.167 28.4568 262.162 27.4265 262.162 25.4014V12.5402L265.04 11.6875V25.6856H265.076Z" fill="white"/>
<path d="M270.582 31.0152H267.705V12.5405L270.582 11.6523V31.0152Z" fill="white"/>
<path d="M36.2029 4.43973L35.2437 3.48047V11.5454L35.9897 12.0783L36.0608 20.4274L41.2834 16.1996L40.1465 10.3019L36.2029 4.43973Z" fill="white"/>
<path d="M60.078 12.2208V10.9062L54.2514 16.6973V18.3316L47.9629 24.5491H54.8909L59.1187 15.667L60.078 12.2208Z" fill="white"/>
<path d="M4.51188 38.9392L3.51709 39.8984H11.6175L12.186 39.1523L20.6061 39.0813L16.3428 33.9297L10.374 35.0666L4.51188 38.9392Z" fill="white"/>
<path d="M12.3281 15.2773H10.978L16.8402 21.0684H18.51L24.7985 27.2859V20.4289L15.8099 16.2366L12.3281 15.2773Z" fill="white"/>
<path d="M39.8979 70.558L40.8572 71.5173V63.4879L40.1111 62.9194L40.04 54.5703L34.8174 58.8337L35.9543 64.7314L39.8979 70.558Z" fill="white"/>
<path d="M16.0229 62.7775V64.1276L21.8496 58.3365V56.6667L28.1381 50.4492H21.2101L16.9822 59.3313L16.0229 62.7775Z" fill="white"/>
<path d="M71.4468 36.2366L72.4061 35.2773H64.3056L63.7727 36.0234L55.3525 36.0945L59.6159 41.2816L65.5491 40.1447L71.4468 36.2366Z" fill="white"/>
<path d="M63.595 59.8992H64.9451L59.1185 54.1081H57.4486L51.1602 47.8906V54.7476L60.1133 58.9399L63.595 59.8992Z" fill="white"/>
<path d="M35.9899 0V12.0796L40.1467 16.2009L35.8833 20.3932V29.9147H59.5806V20.0379L62.8847 16.7693V9.05969L54.1448 17.7286V24.1592H41.4968V22.9867L47.9629 16.5561L41.2125 9.84131V4.68972L35.9899 0Z" fill="white"/>
<path d="M0 39.1504H12.1862L16.343 35.0647L20.6063 39.257H30.199V15.7729H20.2155L16.9114 12.4688H9.13074L17.9062 21.1732H24.3723V33.7146H23.1999L16.6982 27.284L9.94789 33.9988H4.72525L0 39.1504Z" fill="white"/>
<path d="M40.1115 75.0007V62.9211L35.9547 58.8353L40.2181 54.6075V45.0859H16.5208V54.9628L13.1812 58.2669V65.9765L21.9566 57.2721V50.8415H34.6046V52.0495L28.1385 58.4445L34.8889 65.1594V70.3465L40.1115 75.0007Z" fill="white"/>
<path d="M75.9592 36.0246H63.773L59.6162 40.1458L55.3529 35.918H45.7603V59.4021H55.7081L59.0478 62.7062H66.8285L58.053 54.0373H51.5869V41.4604H52.7593L59.261 47.891L66.0113 41.2117H71.234L75.9592 36.0246Z" fill="white"/>
<path d="M90.3837 47.0742H92.4798L96.9564 59.2249H94.3983C94.1852 58.5854 93.901 57.7327 93.5812 56.7024H89.2112C89.0336 57.2708 88.7494 58.1235 88.3941 59.2249H85.8716L90.3481 47.0742H90.3837ZM91.4495 50.3428C91.0942 51.3376 90.5968 52.7587 89.9573 54.6062H92.8706C92.2667 52.8298 91.8048 51.4087 91.414 50.3428H91.4495Z" fill="white"/>
<path d="M99.5498 59.1897V47.0391H102.072V57.1646H106.62V59.1897H99.5498Z" fill="white"/>
<path d="M117.314 47.0742V52.0837C118.984 49.8099 120.227 48.1401 121.009 47.0742H124.1C122.785 48.8151 121.329 50.6981 119.73 52.7943C121.4 54.8194 123.176 56.9511 124.988 59.2249H121.648C120.476 57.6616 119.055 55.7431 117.385 53.5403H117.314V59.2249H114.934V47.0742H117.314Z" fill="white"/>
<path d="M130.566 47.0742H132.662L137.139 59.2249H134.58C134.367 58.5854 134.083 57.7327 133.763 56.7024H129.393C129.216 57.2708 128.931 58.1235 128.576 59.2249H126.054L130.53 47.0742H130.566ZM131.632 50.3428C131.276 51.3376 130.779 52.7587 130.139 54.6062H133.053C132.449 52.8298 131.987 51.4087 131.596 50.3428H131.632Z" fill="white"/>
<path d="M140.762 49.0642H137.245V47.0391H147.051V49.0642H143.285V59.1897H140.762V49.0642Z" fill="white"/>
<path d="M152.309 59.1897H149.822V47.0391H152.309V51.9064H157.532V47.0391H160.054V59.1897H157.532V53.9315H152.309V59.1897Z" fill="white"/>
<path d="M166.556 47.0742V59.2249H164.069V47.0742H166.556Z" fill="white"/>
<path d="M170.571 59.188V47.0729C170.748 47.0374 171.246 46.9663 172.099 46.9308C172.916 46.8597 173.555 46.8242 173.982 46.8242C177.072 46.8242 178.636 48.1032 178.636 50.6257C178.636 51.9758 178.067 53.1482 176.966 54.1075C177.428 55.1733 178.209 56.8787 179.311 59.188H176.788C176.149 57.838 175.474 56.3458 174.763 54.7825C174.621 54.7825 174.443 54.8181 174.195 54.8181C173.626 54.8181 173.271 54.7825 173.093 54.6759V59.188H170.571ZM173.093 48.9559V52.6153C173.484 52.7219 173.875 52.793 174.337 52.793C175.438 52.793 175.971 52.0469 175.971 50.5902C175.971 49.4178 175.403 48.8138 174.266 48.8138C173.626 48.8138 173.235 48.8493 173.093 48.9559Z" fill="white"/>
<path d="M184.071 47.0742V59.2249H181.584V47.0742H184.071Z" fill="white"/>
<path d="M196.151 59.1897H193.664V47.0391H196.151V51.9064H201.374V47.0391H203.896V59.1897H201.374V53.9315H196.151V59.1897Z" fill="white"/>
<path d="M212.636 46.8242C214.519 46.8242 215.94 47.5703 216.935 49.0625C217.717 50.2349 218.108 51.6205 218.108 53.2903C218.108 55.1733 217.575 56.7011 216.544 57.838C215.55 58.9038 214.235 59.4367 212.601 59.4367C210.718 59.4367 209.261 58.7617 208.302 57.3761C207.52 56.2747 207.129 54.9246 207.129 53.2903C207.129 51.3718 207.662 49.8086 208.693 48.6006C209.687 47.4282 211.002 46.8597 212.636 46.8597V46.8242ZM212.636 57.305C213.56 57.305 214.271 56.9498 214.768 56.2747C215.265 55.5642 215.514 54.5694 215.514 53.2903C215.514 51.9047 215.23 50.8034 214.697 50.0218C214.2 49.3467 213.489 48.9914 212.636 48.9914C211.713 48.9914 211.002 49.3822 210.505 50.1283C210.007 50.8744 209.758 51.9403 209.758 53.2903C209.758 55.9905 210.718 57.3406 212.672 57.3406L212.636 57.305Z" fill="white"/>
<path d="M221.412 59.1897V47.0391H223.934V57.1646H228.482V59.1897H221.412Z" fill="white"/>
<path d="M231.253 47.0729C231.892 46.8953 232.994 46.8242 234.557 46.8242C236.76 46.8242 238.394 47.4637 239.567 48.7427C240.561 49.8441 241.059 51.2652 241.059 53.0061C241.059 55.2089 240.419 56.8432 239.176 57.9445C238.039 58.9393 236.44 59.4367 234.415 59.4367C233.136 59.4367 232.07 59.3657 231.253 59.188V47.0729ZM233.775 57.3406C234.024 57.4116 234.344 57.4471 234.735 57.4471C237.186 57.4471 238.43 55.9905 238.43 53.0772C238.43 51.6205 238.003 50.5191 237.186 49.7731C236.511 49.1691 235.694 48.8493 234.664 48.8493C234.379 48.8493 234.06 48.8493 233.775 48.9559V57.3761V57.3406Z" fill="white"/>
<path d="M246.779 47.0742V59.2249H244.292V47.0742H246.779Z" fill="white"/>
<path d="M253.28 51.0889V59.2249H250.793V47.0742H252.89C254.95 49.7388 256.975 52.5456 259 55.4589V47.0742H261.523V59.2249H259.391C258.183 57.8037 256.158 55.1036 253.316 51.0889H253.28Z" fill="white"/>
<path d="M274.526 58.1932C273.034 59.0104 271.577 59.4367 270.156 59.4367C268.238 59.4367 266.781 58.6906 265.857 57.1984C265.147 56.0971 264.792 54.747 264.792 53.1838C264.792 51.3363 265.324 49.8086 266.39 48.5651C267.385 47.4282 268.7 46.8242 270.227 46.8242C271.648 46.8242 272.927 47.3571 274.029 48.3875L273.034 49.9862C272.11 49.3112 271.222 48.9914 270.334 48.9914C269.446 48.9914 268.735 49.3822 268.167 50.1994C267.598 51.0165 267.314 52.0113 267.314 53.2548C267.314 54.5694 267.669 55.5997 268.415 56.3458C269.019 56.9853 269.73 57.305 270.618 57.305C271.151 57.305 271.648 57.234 272.11 57.0563V54.5338H269.943V52.3311H274.491V58.1577L274.526 58.1932Z" fill="white"/>
</g>
<defs>
<clipPath id="clip0_8630_7984">
<rect width="274.526" height="75" fill="white"/>
</clipPath>
</defs>
</svg>
